{
  "accessors": [
    {
      "bufferView": 2,
      "componentType": 5126,
      "count": 65532,
      "max": [
        1.3018629550933838,
        11.964208602905273,
        0.92329299449920654
      ],
      "min": [
        -0.97765898704528809,
        11.091884613037109,
        -1.7194579839706421
      ],
      "type": "VEC3"
    },
    {
      "bufferView": 2,
      "byteOffset": 786384,
      "componentType": 5126,
      "count": 65532,
      "max": [
        0.99983334541320801,
        0.99999547004699707,
        1
      ],
      "min": [
        -0.9885258674621582,
        -0.99998676776885986,
        -1
      ],
      "type": "VEC3"
    },
    {
      "bufferView": 1,
      "componentType": 5126,
      "count": 65532,
      "max": [
        1,
        0.9815400242805481
      ],
      "min": [
        0.0032949999440461397,
        0.031055999919772148
      ],
      "type": "VEC2"
    },
    {
      "bufferView": 0,
      "componentType": 5125,
      "count": 366021,
      "max": [
        65531
      ],
      "min": [
        0
      ],
      "type": "SCALAR"
    },
    {
      "bufferView": 2,
      "byteOffset": 1572768,
      "componentType": 5126,
      "count": 65532,
      "max": [
        1.0361119508743286,
        11.960231781005859,
        0.95222800970077515
      ],
      "min": [
        -1.0335609912872314,
        11.024517059326172,
        -1.71881103515625
      ],
      "type": "VEC3"
    },
    {
      "bufferView": 2,
      "byteOffset": 2359152,
      "componentType": 5126,
      "count": 65532,
      "max": [
        0.99962395429611206,
        0.99999046325683594,
        0.99999529123306274
      ],
      "min": [
        -0.99989932775497437,
        -0.99999886751174927,
        -0.99955135583877563
      ],
      "type": "VEC3"
    },
    {
      "bufferView": 1,
      "byteOffset": 524256,
      "componentType": 5126,
      "count": 65532,
      "max": [
        1,
        0.98357200622558594
      ],
      "min": [
        0,
        0
      ],
      "type": "VEC2"
    },
    {
      "bufferView": 0,
      "byteOffset": 1464084,
      "componentType": 5125,
      "count": 332670,
      "max": [
        65531
      ],
      "min": [
        0
      ],
      "type": "SCALAR"
    },
    {
      "bufferView": 2,
      "byteOffset": 3145536,
      "componentType": 5126,
      "count": 17099,
      "max": [
        1.0763440132141113,
        11.880305290222168,
        0.95212197303771973
      ],
      "min": [
        -1.0330209732055664,
        11.025211334228516,
        -1.5851060152053833
      ],
      "type": "VEC3"
    },
    {
      "bufferView": 2,
      "byteOffset": 3350724,
      "componentType": 5126,
      "count": 17099,
      "max": [
        0.99200695753097534,
        0.99997645616531372,
        0.9999503493309021
      ],
      "min": [
        -0.99997407197952271,
        -0.99995964765548706,
        -0.99427974224090576
      ],
      "type": "VEC3"
    },
    {
      "bufferView": 1,
      "byteOffset": 1048512,
      "componentType": 5126,
      "count": 17099,
      "max": [
        1,
        0.98215299844741821
      ],
      "min": [
        0.00067400000989437103,
        0.01903500035405159
      ],
      "type": "VEC2"
    },
    {
      "bufferView": 0,
      "byteOffset": 2794764,
      "componentType": 5125,
      "count": 73293,
      "max": [
        17098
      ],
      "min": [
        0
      ],
      "type": "SCALAR"
    }
  ],
  "asset": {
    "extras": {
      "author": "Digital Atlas of Ancient Life (https://sketchfab.com/DigitalAtlasOfAncientLife)",
      "license": "CC0-1.0 (http://creativecommons.org/publicdomain/zero/1.0/)",
      "source": "https://sketchfab.com/3d-models/cephalopod-asteroceras-obtusum-pri-43873-a0bd5eaae0544f2fb8d421bfd1c4f6a7",
      "title": "Cephalopod: Asteroceras obtusum (PRI 43873)"
    },
    "generator": "Sketchfab-7.80.0",
    "version": "2.0"
  },
  "bufferViews": [
    {
      "buffer": 0,
      "byteLength": 3087936,
      "byteOffset": 0,
      "name": "floatBufferViews",
      "target": 34963
    },
    {
      "buffer": 0,
      "byteLength": 1185304,
      "byteOffset": 3087936,
      "byteStride": 8,
      "name": "floatBufferViews",
      "target": 34962
    },
    {
      "buffer": 0,
      "byteLength": 3555912,
      "byteOffset": 4273240,
      "byteStride": 12,
      "name": "floatBufferViews",
      "target": 34962
    }
  ],
  "buffers": [
    {
      "byteLength": 7829152,
      "uri": "scene.bin"
    }
  ],
  "extensionsUsed": [
    "KHR_materials_unlit"
  ],
  "images": [
    {
      "uri": "textures/PRI_43873_baseColor.jpeg"
    }
  ],
  "materials": [
    {
      "doubleSided": true,
      "emissiveFactor": [
        0,
        0,
        0
      ],
      "extensions": {
        "KHR_materials_unlit": {}
      },
      "name": "PRI_43873",
      "pbrMetallicRoughness": {
        "baseColorFactor": [
          1,
          1,
          1,
          1
        ],
        "baseColorTexture": {
          "index": 0,
          "texCoord": 0
        },
        "metallicFactor": 0,
        "roughnessFactor": 1
      }
    }
  ],
  "meshes": [
    {
      "primitives": [
        {
          "attributes": {
            "NORMAL": 1,
            "POSITION": 0,
            "TEXCOORD_0": 2
          },
          "indices": 3,
          "material": 0,
          "mode": 4
        }
      ]
    },
    {
      "primitives": [
        {
          "attributes": {
            "NORMAL": 5,
            "POSITION": 4,
            "TEXCOORD_0": 6
          },
          "indices": 7,
          "material": 0,
          "mode": 4
        }
      ]
    },
    {
      "primitives": [
        {
          "attributes": {
            "NORMAL": 9,
            "POSITION": 8,
            "TEXCOORD_0": 10
          },
          "indices": 11,
          "material": 0,
          "mode": 4
        }
      ]
    }
  ],
  "nodes": [
    {
      "children": [
        1
      ],
      "name": "RootNode (gltf orientation matrix)",
      "rotation": [
        -0.70710678118654746,
        -0,
        -0,
        0.70710678118654757
      ]
    },
    {
      "children": [
        2
      ],
      "matrix": [
        -0.1009678840637207,
        -0.16094009578227997,
        -0.98178601264953613,
        0,
        -0.033276643604040146,
        0.98682314157485962,
        -0.1583436131477356,
        0,
        0.99433302879333496,
        0.016682922840118408,
        -0.10499299317598343,
        0,
        0.91163343191146851,
        0.17944946885108948,
        1.5278725624084473,
        1
      ],
      "name": "RootNode (model correction matrix)"
    },
    {
      "children": [
        3,
        4,
        5
      ],
      "name": "PRI_43873.obj.cleaner.materialmerger.gles"
    },
    {
      "mesh": 0,
      "name": ""
    },
    {
      "mesh": 1,
      "name": ""
    },
    {
      "mesh": 2,
      "name": ""
    }
  ],
  "samplers": [
    {
      "magFilter": 9729,
      "minFilter": 9987,
      "wrapS": 10497,
      "wrapT": 10497
    }
  ],
  "scene": 0,
  "scenes": [
    {
      "name": "OSG_Scene",
      "nodes": [
        0
      ]
    }
  ],
  "textures": [
    {
      "sampler": 0,
      "source": 0
    }
  ]
}

