{
  "accessors": [
    {
      "bufferView": 2,
      "componentType": 5126,
      "count": 65532,
      "max": [
        8.2547235488891602,
        29.541313171386719,
        4.4567861557006836
      ],
      "min": [
        -7.557610034942627,
        21.309473037719727,
        -3.3885669708251953
      ],
      "type": "VEC3"
    },
    {
      "bufferView": 2,
      "byteOffset": 786384,
      "componentType": 5126,
      "count": 65532,
      "max": [
        0.99999552965164185,
        0.99997484683990479,
        0.99993371963500977
      ],
      "min": [
        -0.99988871812820435,
        -0.9999699592590332,
        -0.99999725818634033
      ],
      "type": "VEC3"
    },
    {
      "bufferView": 1,
      "componentType": 5126,
      "count": 65532,
      "max": [
        0.98386299610137939,
        1
      ],
      "min": [
        0,
        0
      ],
      "type": "VEC2"
    },
    {
      "bufferView": 0,
      "componentType": 5125,
      "count": 344709,
      "max": [
        65531
      ],
      "min": [
        0
      ],
      "type": "SCALAR"
    },
    {
      "bufferView": 2,
      "byteOffset": 1572768,
      "componentType": 5126,
      "count": 2966,
      "max": [
        6.0563211441040039,
        29.181697845458984,
        3.6414220333099365
      ],
      "min": [
        -7.5702018737792969,
        22.625164031982422,
        -3.3510029315948486
      ],
      "type": "VEC3"
    },
    {
      "bufferView": 2,
      "byteOffset": 1608360,
      "componentType": 5126,
      "count": 2966,
      "max": [
        0.99668616056442261,
        0.99887388944625854,
        0.99993151426315308
      ],
      "min": [
        -0.9996180534362793,
        -0.99998611211776733,
        -0.99959385395050049
      ],
      "type": "VEC3"
    },
    {
      "bufferView": 1,
      "byteOffset": 524256,
      "componentType": 5126,
      "count": 2966,
      "max": [
        0.96722102165222168,
        1
      ],
      "min": [
        0.024183999747037888,
        0.015053000301122665
      ],
      "type": "VEC2"
    },
    {
      "bufferView": 0,
      "byteOffset": 1378836,
      "componentType": 5125,
      "count": 10293,
      "max": [
        2965
      ],
      "min": [
        0
      ],
      "type": "SCALAR"
    }
  ],
  "asset": {
    "extras": {
      "author": "Digital Atlas of Ancient Life (https://sketchfab.com/DigitalAtlasOfAncientLife)",
      "license": "CC0-1.0 (http://creativecommons.org/publicdomain/zero/1.0/)",
      "source": "https://sketchfab.com/3d-models/vertebrate-titanoboa-d68184e01a044c7dbfe51ebf84beb9cf",
      "title": "Vertebrate: Titanoboa"
    },
    "generator": "Sketchfab-7.80.0",
    "version": "2.0"
  },
  "bufferViews": [
    {
      "buffer": 0,
      "byteLength": 1420008,
      "byteOffset": 0,
      "name": "floatBufferViews",
      "target": 34963
    },
    {
      "buffer": 0,
      "byteLength": 547984,
      "byteOffset": 1420008,
      "byteStride": 8,
      "name": "floatBufferViews",
      "target": 34962
    },
    {
      "buffer": 0,
      "byteLength": 1643952,
      "byteOffset": 1967992,
      "byteStride": 12,
      "name": "floatBufferViews",
      "target": 34962
    }
  ],
  "buffers": [
    {
      "byteLength": 3611944,
      "uri": "scene.bin"
    }
  ],
  "extensionsUsed": [
    "KHR_materials_unlit"
  ],
  "images": [
    {
      "uri": "textures/Living_fossil_trials_baseColor.jpeg"
    }
  ],
  "materials": [
    {
      "doubleSided": true,
      "emissiveFactor": [
        0,
        0,
        0
      ],
      "extensions": {
        "KHR_materials_unlit": {}
      },
      "name": "Living_fossil_trials",
      "pbrMetallicRoughness": {
        "baseColorFactor": [
          1,
          1,
          1,
          1
        ],
        "baseColorTexture": {
          "index": 0,
          "texCoord": 0
        },
        "metallicFactor": 0,
        "roughnessFactor": 1
      }
    }
  ],
  "meshes": [
    {
      "primitives": [
        {
          "attributes": {
            "NORMAL": 1,
            "POSITION": 0,
            "TEXCOORD_0": 2
          },
          "indices": 3,
          "material": 0,
          "mode": 4
        }
      ]
    },
    {
      "primitives": [
        {
          "attributes": {
            "NORMAL": 5,
            "POSITION": 4,
            "TEXCOORD_0": 6
          },
          "indices": 7,
          "material": 0,
          "mode": 4
        }
      ]
    }
  ],
  "nodes": [
    {
      "children": [
        1
      ],
      "name": "RootNode (gltf orientation matrix)",
      "rotation": [
        -0.70710678118654746,
        -0,
        -0,
        0.70710678118654757
      ]
    },
    {
      "children": [
        2
      ],
      "matrix": [
        0.99794381856918335,
        -0.0054591558873653412,
        0.063862264156341553,
        0,
        0.029012121260166168,
        0.92692583799362183,
        -0.37412130832672119,
        0,
        -0.057153195142745972,
        0.37520483136177063,
        0.92517828941345215,
        0,
        -0.70641487836837769,
        1.6594048738479614,
        9.5302963256835938,
        1
      ],
      "name": "RootNode (model correction matrix)"
    },
    {
      "children": [
        3,
        4
      ],
      "name": "Living_fossil_trials.obj.cleaner.materialmerger.gles"
    },
    {
      "mesh": 0,
      "name": ""
    },
    {
      "mesh": 1,
      "name": ""
    }
  ],
  "samplers": [
    {
      "magFilter": 9729,
      "minFilter": 9987,
      "wrapS": 10497,
      "wrapT": 10497
    }
  ],
  "scene": 0,
  "scenes": [
    {
      "name": "OSG_Scene",
      "nodes": [
        0
      ]
    }
  ],
  "textures": [
    {
      "sampler": 0,
      "source": 0
    }
  ]
}

