{
  "accessors": [
    {
      "bufferView": 2,
      "componentType": 5126,
      "count": 4655,
      "max": [
        0.14972986280918121,
        -1.8606139421463013,
        2.0153419971466064
      ],
      "min": [
        -0.20672142505645752,
        -3.568464994430542,
        -1.264176607131958
      ],
      "type": "VEC3"
    },
    {
      "bufferView": 2,
      "byteOffset": 55860,
      "componentType": 5126,
      "count": 4655,
      "max": [
        0.99995326995849609,
        0.99999052286148071,
        1
      ],
      "min": [
        -0.99995326995849609,
        -0.99999129772186279,
        -0.99978655576705933
      ],
      "type": "VEC3"
    },
    {
      "bufferView": 1,
      "componentType": 5126,
      "count": 4655,
      "max": [
        0.99400001764297485,
        0.43843001127243042
      ],
      "min": [
        0.92063999176025391,
        0.052129998803138733
      ],
      "type": "VEC2"
    },
    {
      "bufferView": 0,
      "componentType": 5125,
      "count": 27024,
      "max": [
        4654
      ],
      "min": [
        0
      ],
      "type": "SCALAR"
    },
    {
      "bufferView": 2,
      "byteOffset": 111720,
      "componentType": 5126,
      "count": 23674,
      "max": [
        4.6560988426208496,
        -2.3101377487182617,
        2.255354642868042
      ],
      "min": [
        -4.7130904197692871,
        -5.4528985023498535,
        1.0047601461410522
      ],
      "type": "VEC3"
    },
    {
      "bufferView": 2,
      "byteOffset": 395808,
      "componentType": 5126,
      "count": 23674,
      "max": [
        0.99981576204299927,
        0.99970442056655884,
        0.99980199337005615
      ],
      "min": [
        -0.99981564283370972,
        -0.99937742948532104,
        -0.9999394416809082
      ],
      "type": "VEC3"
    },
    {
      "bufferView": 1,
      "byteOffset": 37240,
      "componentType": 5126,
      "count": 23674,
      "max": [
        0.93863999843597412,
        0.92540997266769409
      ],
      "min": [
        0.2975899875164032,
        0.50949001312255859
      ],
      "type": "VEC2"
    },
    {
      "bufferView": 0,
      "byteOffset": 108096,
      "componentType": 5125,
      "count": 133728,
      "max": [
        23673
      ],
      "min": [
        0
      ],
      "type": "SCALAR"
    },
    {
      "bufferView": 2,
      "byteOffset": 679896,
      "componentType": 5126,
      "count": 54502,
      "max": [
        1.4595209360122681,
        -0.64074510335922241,
        2.9404983520507812
      ],
      "min": [
        -1.5165125131607056,
        -4.1469197273254395,
        -2.9442760944366455
      ],
      "type": "VEC3"
    },
    {
      "bufferView": 2,
      "byteOffset": 1333920,
      "componentType": 5126,
      "count": 54502,
      "max": [
        0.99997913837432861,
        1,
        0.99997776746749878
      ],
      "min": [
        -0.99997919797897339,
        -0.99999135732650757,
        -0.99998652935028076
      ],
      "type": "VEC3"
    },
    {
      "bufferView": 1,
      "byteOffset": 226632,
      "componentType": 5126,
      "count": 54502,
      "max": [
        0.92264997959136963,
        0.47856000065803528
      ],
      "min": [
        0.0019499999471008778,
        0.0019499999471008778
      ],
      "type": "VEC2"
    },
    {
      "bufferView": 0,
      "byteOffset": 643008,
      "componentType": 5125,
      "count": 324132,
      "max": [
        54501
      ],
      "min": [
        0
      ],
      "type": "SCALAR"
    },
    {
      "bufferView": 2,
      "byteOffset": 1987944,
      "componentType": 5126,
      "count": 6652,
      "max": [
        0.61387902498245239,
        -0.89012014865875244,
        0.63330495357513428
      ],
      "min": [
        -0.67087066173553467,
        -2.4333653450012207,
        -0.99579238891601562
      ],
      "type": "VEC3"
    },
    {
      "bufferView": 2,
      "byteOffset": 2067768,
      "componentType": 5126,
      "count": 6652,
      "max": [
        0.99965196847915649,
        0.99992954730987549,
        0.99913603067398071
      ],
      "min": [
        -0.99965196847915649,
        -0.99923545122146606,
        -0.99935221672058105
      ],
      "type": "VEC3"
    },
    {
      "bufferView": 1,
      "byteOffset": 662648,
      "componentType": 5126,
      "count": 6652,
      "max": [
        0.99355000257492065,
        0.99804002046585083
      ],
      "min": [
        0.088399998843669891,
        0.57910001277923584
      ],
      "type": "VEC2"
    },
    {
      "bufferView": 0,
      "byteOffset": 1939536,
      "componentType": 5125,
      "count": 38112,
      "max": [
        6651
      ],
      "min": [
        0
      ],
      "type": "SCALAR"
    },
    {
      "bufferView": 2,
      "byteOffset": 2147592,
      "componentType": 5126,
      "count": 18515,
      "max": [
        0.77794051170349121,
        -2.1619231700897217,
        1.5480660200119019
      ],
      "min": [
        -0.83493208885192871,
        -3.6132805347442627,
        -1.4907714128494263
      ],
      "type": "VEC3"
    },
    {
      "bufferView": 2,
      "byteOffset": 2369772,
      "componentType": 5126,
      "count": 18515,
      "max": [
        0.99994903802871704,
        0.99999326467514038,
        0.99988067150115967
      ],
      "min": [
        -0.99994909763336182,
        -0.99998539686203003,
        -0.9999384880065918
      ],
      "type": "VEC3"
    },
    {
      "bufferView": 1,
      "byteOffset": 715864,
      "componentType": 5126,
      "count": 18515,
      "max": [
        0.35210999846458435,
        0.7832300066947937
      ],
      "min": [
        0.0019499999471008778,
        0.48464000225067139
      ],
      "type": "VEC2"
    },
    {
      "bufferView": 0,
      "byteOffset": 2091984,
      "componentType": 5125,
      "count": 107952,
      "max": [
        18514
      ],
      "min": [
        0
      ],
      "type": "SCALAR"
    },
    {
      "bufferView": 2,
      "byteOffset": 2591952,
      "componentType": 5126,
      "count": 3463,
      "max": [
        0.24959665536880493,
        -3.0438017845153809,
        2.5392220020294189
      ],
      "min": [
        -0.30658823251724243,
        -3.7091619968414307,
        1.9611877202987671
      ],
      "type": "VEC3"
    },
    {
      "bufferView": 2,
      "byteOffset": 2633508,
      "componentType": 5126,
      "count": 3463,
      "max": [
        0.99987137317657471,
        1,
        0.99537938833236694
      ],
      "min": [
        -0.99987131357192993,
        -0.99999630451202393,
        -0.99998009204864502
      ],
      "type": "VEC3"
    },
    {
      "bufferView": 1,
      "byteOffset": 863984,
      "componentType": 5126,
      "count": 3463,
      "max": [
        0.10023999959230423,
        0.99639999866485596
      ],
      "min": [
        0.0019499999471008778,
        0.93462002277374268
      ],
      "type": "VEC2"
    },
    {
      "bufferView": 0,
      "byteOffset": 2523792,
      "componentType": 5125,
      "count": 20016,
      "max": [
        3462
      ],
      "min": [
        0
      ],
      "type": "SCALAR"
    }
  ],
  "asset": {
    "extras": {
      "author": "Museo Nacional de Historia Natural de Chile (https://sketchfab.com/MNHNcl)",
      "license": "CC0-1.0 (http://creativecommons.org/publicdomain/zero/1.0/)",
      "source": "https://sketchfab.com/3d-models/daphinia-b605ff408ce347b2a690152efbe6aa2f",
      "title": "Daphinia"
    },
    "generator": "Sketchfab-7.80.0",
    "version": "2.0"
  },
  "bufferViews": [
    {
      "buffer": 0,
      "byteLength": 2603856,
      "byteOffset": 0,
      "name": "floatBufferViews",
      "target": 34963
    },
    {
      "buffer": 0,
      "byteLength": 891688,
      "byteOffset": 2603856,
      "byteStride": 8,
      "name": "floatBufferViews",
      "target": 34962
    },
    {
      "buffer": 0,
      "byteLength": 2675064,
      "byteOffset": 3495544,
      "byteStride": 12,
      "name": "floatBufferViews",
      "target": 34962
    }
  ],
  "buffers": [
    {
      "byteLength": 6170608,
      "uri": "scene.bin"
    }
  ],
  "images": [
    {
      "uri": "textures/defaultMat_baseColor.png"
    },
    {
      "uri": "textures/defaultMat_metallicRoughness.png"
    }
  ],
  "materials": [
    {
      "alphaMode": "BLEND",
      "doubleSided": true,
      "emissiveFactor": [
        0,
        0,
        0
      ],
      "name": "defaultMat",
      "pbrMetallicRoughness": {
        "baseColorFactor": [
          1,
          1,
          1,
          0.69999999999999996
        ],
        "baseColorTexture": {
          "index": 0,
          "texCoord": 0
        },
        "metallicFactor": 1,
        "metallicRoughnessTexture": {
          "index": 1,
          "texCoord": 0
        },
        "roughnessFactor": 0.69999999999999996
      }
    }
  ],
  "meshes": [
    {
      "primitives": [
        {
          "attributes": {
            "NORMAL": 1,
            "POSITION": 0,
            "TEXCOORD_0": 2
          },
          "indices": 3,
          "material": 0,
          "mode": 4
        }
      ]
    },
    {
      "primitives": [
        {
          "attributes": {
            "NORMAL": 5,
            "POSITION": 4,
            "TEXCOORD_0": 6
          },
          "indices": 7,
          "material": 0,
          "mode": 4
        }
      ]
    },
    {
      "primitives": [
        {
          "attributes": {
            "NORMAL": 9,
            "POSITION": 8,
            "TEXCOORD_0": 10
          },
          "indices": 11,
          "material": 0,
          "mode": 4
        }
      ]
    },
    {
      "primitives": [
        {
          "attributes": {
            "NORMAL": 13,
            "POSITION": 12,
            "TEXCOORD_0": 14
          },
          "indices": 15,
          "material": 0,
          "mode": 4
        }
      ]
    },
    {
      "primitives": [
        {
          "attributes": {
            "NORMAL": 17,
            "POSITION": 16,
            "TEXCOORD_0": 18
          },
          "indices": 19,
          "material": 0,
          "mode": 4
        }
      ]
    },
    {
      "primitives": [
        {
          "attributes": {
            "NORMAL": 21,
            "POSITION": 20,
            "TEXCOORD_0": 22
          },
          "indices": 23,
          "material": 0,
          "mode": 4
        }
      ]
    }
  ],
  "nodes": [
    {
      "children": [
        1
      ],
      "name": "RootNode (gltf orientation matrix)",
      "rotation": [
        -0.70710678118654746,
        -0,
        -0,
        0.70710678118654757
      ]
    },
    {
      "children": [
        2
      ],
      "name": "RootNode (model correction matrix)"
    },
    {
      "children": [
        3,
        4,
        5,
        6,
        7,
        8
      ],
      "name": "daphinia.OBJ.cleaner.materialmerger.gles"
    },
    {
      "mesh": 0,
      "name": ""
    },
    {
      "mesh": 1,
      "name": ""
    },
    {
      "mesh": 2,
      "name": ""
    },
    {
      "mesh": 3,
      "name": ""
    },
    {
      "mesh": 4,
      "name": ""
    },
    {
      "mesh": 5,
      "name": ""
    }
  ],
  "samplers": [
    {
      "magFilter": 9729,
      "minFilter": 9987,
      "wrapS": 10497,
      "wrapT": 10497
    }
  ],
  "scene": 0,
  "scenes": [
    {
      "name": "OSG_Scene",
      "nodes": [
        0
      ]
    }
  ],
  "textures": [
    {
      "sampler": 0,
      "source": 0
    },
    {
      "sampler": 0,
      "source": 1
    }
  ]
}

