{
  "accessors": [
    {
      "bufferView": 2,
      "componentType": 5126,
      "count": 65532,
      "max": [
        0.45454400777816772,
        23.726165771484375,
        7.9879231452941895
      ],
      "min": [
        -6.2043547630310059,
        19.601554870605469,
        -1.0280100107192993
      ],
      "type": "VEC3"
    },
    {
      "bufferView": 2,
      "byteOffset": 786384,
      "componentType": 5126,
      "count": 65532,
      "max": [
        0.99985802173614502,
        0.99952095746994019,
        0.99983209371566772
      ],
      "min": [
        -0.99981838464736938,
        -0.99986875057220459,
        -0.99968945980072021
      ],
      "type": "VEC3"
    },
    {
      "bufferView": 1,
      "componentType": 5126,
      "count": 65532,
      "max": [
        0.99488198757171631,
        1
      ],
      "min": [
        0.0024530000519007444,
        0.0049890000373125076
      ],
      "type": "VEC2"
    },
    {
      "bufferView": 0,
      "componentType": 5125,
      "count": 328512,
      "max": [
        65531
      ],
      "min": [
        0
      ],
      "type": "SCALAR"
    },
    {
      "bufferView": 2,
      "byteOffset": 1572768,
      "componentType": 5126,
      "count": 65532,
      "max": [
        0.46974599361419678,
        23.728189468383789,
        7.3031268119812012
      ],
      "min": [
        -5.7327709197998047,
        19.395431518554688,
        0.98113799095153809
      ],
      "type": "VEC3"
    },
    {
      "bufferView": 2,
      "byteOffset": 2359152,
      "componentType": 5126,
      "count": 65532,
      "max": [
        0.99989563226699829,
        0.99351334571838379,
        0.9997859001159668
      ],
      "min": [
        -0.99984365701675415,
        -0.99999964237213135,
        -0.99898707866668701
      ],
      "type": "VEC3"
    },
    {
      "bufferView": 1,
      "byteOffset": 524256,
      "componentType": 5126,
      "count": 65532,
      "max": [
        0.99292999505996704,
        0.99903500080108643
      ],
      "min": [
        0.0024659999180585146,
        0.004253000020980835
      ],
      "type": "VEC2"
    },
    {
      "bufferView": 0,
      "byteOffset": 1314048,
      "componentType": 5125,
      "count": 337353,
      "max": [
        65531
      ],
      "min": [
        0
      ],
      "type": "SCALAR"
    },
    {
      "bufferView": 2,
      "byteOffset": 3145536,
      "componentType": 5126,
      "count": 65532,
      "max": [
        0.57734102010726929,
        24.123779296875,
        6.8880319595336914
      ],
      "min": [
        -6.1909308433532715,
        19.395183563232422,
        -0.083972997963428497
      ],
      "type": "VEC3"
    },
    {
      "bufferView": 2,
      "byteOffset": 3931920,
      "componentType": 5126,
      "count": 65532,
      "max": [
        0.99999713897705078,
        0.99935328960418701,
        0.99975502490997314
      ],
      "min": [
        -0.99991011619567871,
        -0.99998831748962402,
        -0.99927657842636108
      ],
      "type": "VEC3"
    },
    {
      "bufferView": 1,
      "byteOffset": 1048512,
      "componentType": 5126,
      "count": 65532,
      "max": [
        0.99453097581863403,
        0.99953001737594604
      ],
      "min": [
        0.0014939999673515558,
        0.055213999003171921
      ],
      "type": "VEC2"
    },
    {
      "bufferView": 0,
      "byteOffset": 2663460,
      "componentType": 5125,
      "count": 319863,
      "max": [
        65531
      ],
      "min": [
        0
      ],
      "type": "SCALAR"
    },
    {
      "bufferView": 2,
      "byteOffset": 4718304,
      "componentType": 5126,
      "count": 65532,
      "max": [
        0.57734102010726929,
        24.088665008544922,
        5.5283632278442383
      ],
      "min": [
        -6.2207260131835938,
        19.493618011474609,
        -0.85067498683929443
      ],
      "type": "VEC3"
    },
    {
      "bufferView": 2,
      "byteOffset": 5504688,
      "componentType": 5126,
      "count": 65532,
      "max": [
        0.99999904632568359,
        0.99924623966217041,
        0.99885278940200806
      ],
      "min": [
        -0.99977582693099976,
        -0.99999558925628662,
        -0.99987423419952393
      ],
      "type": "VEC3"
    },
    {
      "bufferView": 1,
      "byteOffset": 1572768,
      "componentType": 5126,
      "count": 65532,
      "max": [
        0.99310600757598877,
        0.99920302629470825
      ],
      "min": [
        0.0022609999869018793,
        0.017417000606656075
      ],
      "type": "VEC2"
    },
    {
      "bufferView": 0,
      "byteOffset": 3942912,
      "componentType": 5125,
      "count": 308235,
      "max": [
        65531
      ],
      "min": [
        0
      ],
      "type": "SCALAR"
    },
    {
      "bufferView": 2,
      "byteOffset": 6291072,
      "componentType": 5126,
      "count": 65532,
      "max": [
        0.44777399301528931,
        23.947849273681641,
        3.9848530292510986
      ],
      "min": [
        -6.21356201171875,
        19.734556198120117,
        -0.85411298274993896
      ],
      "type": "VEC3"
    },
    {
      "bufferView": 2,
      "byteOffset": 7077456,
      "componentType": 5126,
      "count": 65532,
      "max": [
        0.99973750114440918,
        0.99867141246795654,
        0.99842435121536255
      ],
      "min": [
        -0.99993956089019775,
        -0.9999815821647644,
        -0.99954956769943237
      ],
      "type": "VEC3"
    },
    {
      "bufferView": 1,
      "byteOffset": 2097024,
      "componentType": 5126,
      "count": 65532,
      "max": [
        0.98779797554016113,
        0.99956399202346802
      ],
      "min": [
        0.0018599999602884054,
        0.0034209999721497297
      ],
      "type": "VEC2"
    },
    {
      "bufferView": 0,
      "byteOffset": 5175852,
      "componentType": 5125,
      "count": 310404,
      "max": [
        65531
      ],
      "min": [
        0
      ],
      "type": "SCALAR"
    },
    {
      "bufferView": 2,
      "byteOffset": 7863840,
      "componentType": 5126,
      "count": 65117,
      "max": [
        -0.90851402282714844,
        23.78070068359375,
        1.3655149936676025
      ],
      "min": [
        -5.6770858764648438,
        20.625259399414062,
        -1.1976720094680786
      ],
      "type": "VEC3"
    },
    {
      "bufferView": 2,
      "byteOffset": 8645244,
      "componentType": 5126,
      "count": 65117,
      "max": [
        0.99985283613204956,
        0.99982959032058716,
        0.99997729063034058
      ],
      "min": [
        -0.99999940395355225,
        -0.9999815821647644,
        -0.99999344348907471
      ],
      "type": "VEC3"
    },
    {
      "bufferView": 1,
      "byteOffset": 2621280,
      "componentType": 5126,
      "count": 65117,
      "max": [
        0.99490398168563843,
        0.99940001964569092
      ],
      "min": [
        0.00139999995008111,
        0.016276000067591667
      ],
      "type": "VEC2"
    },
    {
      "bufferView": 0,
      "byteOffset": 6417468,
      "componentType": 5125,
      "count": 280377,
      "max": [
        65116
      ],
      "min": [
        0
      ],
      "type": "SCALAR"
    }
  ],
  "asset": {
    "extras": {
      "author": "Fermanagh3D (https://sketchfab.com/Fermanagh3D)",
      "license": "CC0-1.0 (http://creativecommons.org/publicdomain/zero/1.0/)",
      "source": "https://sketchfab.com/3d-models/cloghan-head2-1c2b8c7fee85421da45e385d281b8e3c",
      "title": "Cloghan Head2"
    },
    "generator": "Sketchfab-7.80.0",
    "version": "2.0"
  },
  "bufferViews": [
    {
      "buffer": 0,
      "byteLength": 7538976,
      "byteOffset": 0,
      "name": "floatBufferViews",
      "target": 34963
    },
    {
      "buffer": 0,
      "byteLength": 3142216,
      "byteOffset": 7538976,
      "byteStride": 8,
      "name": "floatBufferViews",
      "target": 34962
    },
    {
      "buffer": 0,
      "byteLength": 9426648,
      "byteOffset": 10681192,
      "byteStride": 12,
      "name": "floatBufferViews",
      "target": 34962
    }
  ],
  "buffers": [
    {
      "byteLength": 20107840,
      "uri": "scene.bin"
    }
  ],
  "images": [
    {
      "uri": "textures/CloghanHead2_baseColor.jpeg"
    }
  ],
  "materials": [
    {
      "doubleSided": true,
      "name": "CloghanHead2",
      "pbrMetallicRoughness": {
        "baseColorFactor": [
          1,
          1,
          1,
          1
        ],
        "baseColorTexture": {
          "index": 0,
          "texCoord": 0
        },
        "metallicFactor": 0,
        "roughnessFactor": 0.59999999999999998
      }
    }
  ],
  "meshes": [
    {
      "primitives": [
        {
          "attributes": {
            "NORMAL": 1,
            "POSITION": 0,
            "TEXCOORD_0": 2
          },
          "indices": 3,
          "material": 0,
          "mode": 4
        }
      ]
    },
    {
      "primitives": [
        {
          "attributes": {
            "NORMAL": 5,
            "POSITION": 4,
            "TEXCOORD_0": 6
          },
          "indices": 7,
          "material": 0,
          "mode": 4
        }
      ]
    },
    {
      "primitives": [
        {
          "attributes": {
            "NORMAL": 9,
            "POSITION": 8,
            "TEXCOORD_0": 10
          },
          "indices": 11,
          "material": 0,
          "mode": 4
        }
      ]
    },
    {
      "primitives": [
        {
          "attributes": {
            "NORMAL": 13,
            "POSITION": 12,
            "TEXCOORD_0": 14
          },
          "indices": 15,
          "material": 0,
          "mode": 4
        }
      ]
    },
    {
      "primitives": [
        {
          "attributes": {
            "NORMAL": 17,
            "POSITION": 16,
            "TEXCOORD_0": 18
          },
          "indices": 19,
          "material": 0,
          "mode": 4
        }
      ]
    },
    {
      "primitives": [
        {
          "attributes": {
            "NORMAL": 21,
            "POSITION": 20,
            "TEXCOORD_0": 22
          },
          "indices": 23,
          "material": 0,
          "mode": 4
        }
      ]
    }
  ],
  "nodes": [
    {
      "children": [
        1
      ],
      "name": "RootNode (gltf orientation matrix)",
      "rotation": [
        -0.70710678118654746,
        -0,
        -0,
        0.70710678118654757
      ]
    },
    {
      "children": [
        2
      ],
      "name": "RootNode (model correction matrix)"
    },
    {
      "children": [
        3,
        4,
        5,
        6,
        7,
        8
      ],
      "name": "CloghanHead2.obj.cleaner.materialmerger.gles"
    },
    {
      "mesh": 0,
      "name": ""
    },
    {
      "mesh": 1,
      "name": ""
    },
    {
      "mesh": 2,
      "name": ""
    },
    {
      "mesh": 3,
      "name": ""
    },
    {
      "mesh": 4,
      "name": ""
    },
    {
      "mesh": 5,
      "name": ""
    }
  ],
  "samplers": [
    {
      "magFilter": 9729,
      "minFilter": 9987,
      "wrapS": 10497,
      "wrapT": 10497
    }
  ],
  "scene": 0,
  "scenes": [
    {
      "name": "OSG_Scene",
      "nodes": [
        0
      ]
    }
  ],
  "textures": [
    {
      "sampler": 0,
      "source": 0
    }
  ]
}

